<svg width="161" height="161" viewBox="0 0 161 161" fill="none" xmlns="http://www.w3.org/2000/svg">
<path d="M77.3301 64H67.0176L64.0293 54.6543H49.0879L46.1289 64H35.875L51.168 21.9883H62.3887L77.3301 64ZM61.8613 47.3887L57.3496 33.2676C57.0176 32.2129 56.7832 30.9531 56.6465 29.4883H56.4121C56.3145 30.7188 56.0703 31.9395 55.6797 33.1504L51.1094 47.3887H61.8613ZM110.594 64H85.5742V21.9883H95.0371V56.3242H110.594V64ZM117.051 63.1504V54.0391C119.883 55.7188 123.086 56.5586 126.66 56.5586C130.605 56.5586 133.789 55.3184 136.211 52.8379C138.633 50.3574 139.844 46.998 139.844 42.7598C139.844 38.6973 138.701 35.4648 136.416 33.0625C134.131 30.6406 131.055 29.4297 127.188 29.4297C123.535 29.4297 120.156 30.3379 117.051 32.1543V23.5117C120.137 22.0273 124.141 21.2852 129.062 21.2852C135.508 21.2852 140.576 23.1797 144.268 26.9688C147.959 30.7383 149.805 35.7773 149.805 42.0859C149.805 48.8242 147.725 54.2832 143.564 58.4629C139.404 62.6426 134.023 64.7324 127.422 64.7324C123.379 64.7324 119.922 64.2051 117.051 63.1504ZM114.033 138.188C109.932 140.551 104.834 141.732 98.7402 141.732C91.9824 141.732 86.6504 139.867 82.7441 136.137C78.8574 132.387 76.9141 127.23 76.9141 120.668C76.9141 114.066 79.043 108.686 83.3008 104.525C87.5586 100.365 93.2227 98.2852 100.293 98.2852C104.746 98.2852 108.672 98.9004 112.07 100.131V109.008C108.828 107.133 104.863 106.195 100.176 106.195C96.25 106.195 93.0469 107.475 90.5664 110.033C88.1055 112.572 86.875 115.971 86.875 120.229C86.875 124.545 87.9785 127.885 90.1855 130.248C92.4121 132.611 95.4102 133.793 99.1797 133.793C101.445 133.793 103.242 133.471 104.57 132.826V124.623H96.1621V117.064H114.033V138.188ZM122.98 140.15V131.039C125.812 132.719 129.016 133.559 132.59 133.559C136.535 133.559 139.719 132.318 142.141 129.838C144.562 127.357 145.773 123.998 145.773 119.76C145.773 115.697 144.631 112.465 142.346 110.062C140.061 107.641 136.984 106.43 133.117 106.43C129.465 106.43 126.086 107.338 122.98 109.154V100.512C126.066 99.0273 130.07 98.2852 134.992 98.2852C141.438 98.2852 146.506 100.18 150.197 103.969C153.889 107.738 155.734 112.777 155.734 119.086C155.734 125.824 153.654 131.283 149.494 135.463C145.334 139.643 139.953 141.732 133.352 141.732C129.309 141.732 125.852 141.205 122.98 140.15Z" fill="black"/>
<path d="M58.1234 98.3667C56.5512 98.3667 55.2469 99.6321 55.2469 101.193V115.887C55.2469 117.447 56.5512 118.712 58.1234 118.712C59.6956 118.712 61 117.447 61 115.887V101.194C61 99.6321 59.6956 98.3667 58.1234 98.3667Z" fill="url(#paint0_linear_2_84)"/>
<path d="M58.1234 120.973C56.5512 120.973 55.2469 122.238 55.2469 123.799V126.342C55.2469 127.903 56.5512 129.168 58.1234 129.168C59.6956 129.168 61 127.903 61 126.342V123.798C61 122.237 59.6956 120.973 58.1234 120.973Z" fill="url(#paint1_linear_2_84)"/>
<path d="M48.4457 87.7928C46.8737 87.7928 45.6273 89.058 45.6273 90.6184V101.259C45.6273 101.259 45.5244 102.961 43.6028 102.961C41.6812 102.961 41.5745 101.259 41.5745 101.259V97.9655C41.5745 96.405 40.2935 95.1396 38.7213 95.1396C37.1491 95.1396 35.868 96.405 35.868 97.9655V109.7C35.868 109.7 36.0518 111.272 33.6786 111.272C31.3054 111.272 31.3727 109.7 31.3727 109.7V84.8259C31.3727 83.2652 30.08 82 28.5078 82C26.9356 82 25.6429 83.2652 25.6429 84.8259V109.7C25.6429 109.7 25.8727 111.318 23.663 111.318C21.4533 111.318 21.6366 109.7 21.6366 109.7V99.5197C21.6366 97.959 20.3905 96.6938 18.8183 96.6938C17.2461 96.6938 16 97.959 16 99.5197V118.735C16 120.296 17.2461 121.561 18.8183 121.561C20.3905 121.561 21.6366 120.296 21.6366 118.735V115.388C21.6366 115.388 21.5174 113.908 23.6165 113.908C25.7155 113.908 25.6429 115.388 25.6429 115.388V137.95C25.6429 139.511 26.9358 140.776 28.5078 140.776C30.0797 140.776 31.3727 139.511 31.3727 137.95V115.388C31.3727 115.388 31.2355 113.679 33.646 113.679C36.0564 113.679 35.868 115.388 35.868 115.388V121.561C35.868 123.121 37.1491 124.386 38.7213 124.386C40.2935 124.386 41.5745 123.121 41.5745 121.561V106.832C41.5745 106.832 41.4723 105.302 43.5506 105.302C45.629 105.302 45.6273 106.832 45.6273 106.832V132.581C45.6273 134.142 46.8737 135.407 48.4457 135.407C50.0176 135.407 51.264 134.142 51.264 132.581V90.6184C51.264 89.058 50.0176 87.7928 48.4457 87.7928Z" fill="url(#paint2_linear_2_84)"/>
<defs>
<linearGradient id="paint0_linear_2_84" x1="13.5276" y1="108.54" x2="59.3852" y2="108.54" gradientUnits="userSpaceOnUse">
<stop stop-color="#FF1542"/>
<stop offset="1" stop-color="#FFD215"/>
</linearGradient>
<linearGradient id="paint1_linear_2_84" x1="13.5276" y1="125.07" x2="59.3852" y2="125.07" gradientUnits="userSpaceOnUse">
<stop stop-color="#FF1542"/>
<stop offset="1" stop-color="#FFD215"/>
</linearGradient>
<linearGradient id="paint2_linear_2_84" x1="13.5276" y1="111.388" x2="59.3852" y2="111.388" gradientUnits="userSpaceOnUse">
<stop stop-color="#FF1542"/>
<stop offset="1" stop-color="#FFD215"/>
</linearGradient>
</defs>
</svg>
